<svg width="19" height="19" viewBox="0 0 19 19" fill="none" xmlns="http://www.w3.org/2000/svg">
<path fill-rule="evenodd" clip-rule="evenodd" d="M9.5 18.5476C10.6819 18.5476 11.8522 18.3148 12.9442 17.8625C14.0361 17.4102 15.0282 16.7473 15.864 15.9116C16.6997 15.0758 17.3626 14.0837 17.8149 12.9918C18.2672 11.8998 18.5 10.7295 18.5 9.54761C18.5 8.36571 18.2672 7.19539 17.8149 6.10346C17.3626 5.01153 16.6997 4.01937 15.864 3.18365C15.0282 2.34792 14.0361 1.68498 12.9442 1.23269C11.8522 0.780399 10.6819 0.547607 9.5 0.547607C7.11305 0.547607 4.82387 1.49582 3.13604 3.18365C1.44821 4.87147 0.5 7.16066 0.5 9.54761C0.5 11.9346 1.44821 14.2237 3.13604 15.9116C4.82387 17.5994 7.11305 18.5476 9.5 18.5476ZM9.268 13.1876L14.268 7.18761L12.732 5.90761L8.432 11.0666L6.207 8.84061L4.793 10.2546L7.793 13.2546L8.567 14.0286L9.268 13.1876Z" fill="white"/>
</svg>
