<svg width="28" height="28" viewBox="0 0 28 28" fill="none" xmlns="http://www.w3.org/2000/svg">
<path d="M4.62095 20.2295L4.21981 23.034C4.19502 23.2081 4.21108 23.3855 4.26672 23.5523C4.32236 23.7191 4.41605 23.8707 4.54039 23.995C4.66472 24.1193 4.81628 24.213 4.98307 24.2687C5.14987 24.3243 5.32733 24.3404 5.5014 24.3156L8.30593 23.9144C8.73086 23.8544 9.79602 20.9943 9.79602 20.9943C9.79602 20.9943 10.3309 21.4533 10.5496 21.5224C11.0164 21.6697 11.4708 21.2119 11.6238 20.7473L12.0623 18.7394C12.0623 18.7394 12.7161 19.0703 12.953 19.119C13.2544 19.1813 13.5467 18.9955 13.7541 18.787C13.8783 18.6625 13.9718 18.5108 14.0272 18.3439L14.3286 16.4731C14.3286 16.4731 15.0935 16.685 15.3552 16.7156C15.6532 16.7496 15.9433 16.5977 16.1564 16.3836L17.4459 15.0952C18.5374 15.4492 19.7055 15.4949 20.8214 15.2274C21.9372 14.9599 22.9576 14.3895 23.77 13.579C24.9367 12.4092 25.592 10.8245 25.592 9.17224C25.592 7.52002 24.9367 5.93524 23.77 4.76544C22.6002 3.59866 21.0154 2.94342 19.3632 2.94342C17.7109 2.94342 16.1262 3.59866 14.9564 4.76544C14.1459 5.57782 13.5755 6.59817 13.308 7.71404C13.0405 8.82992 13.0862 9.99799 13.4402 11.0895L4.94049 19.5881C4.76741 19.7617 4.65529 19.9867 4.62095 20.2295ZM21.6986 6.83683C22.3165 7.457 22.6634 8.29678 22.6634 9.17224C22.6634 10.0477 22.3165 10.8875 21.6986 11.5077L17.0277 6.83683C17.6479 6.21891 18.4877 5.87195 19.3632 5.87195C20.2386 5.87195 21.0784 6.21891 21.6986 6.83683Z" fill="#00284B"/>
</svg>
