<svg width="28" height="28" viewBox="0 0 28 28" fill="none" xmlns="http://www.w3.org/2000/svg">
<path d="M17.1456 4.15923C17.4349 4.24058 17.6799 4.43346 17.827 4.69546C17.974 4.95747 18.011 5.26714 17.9298 5.5564L12.91 23.4465C12.8698 23.5898 12.8018 23.7238 12.7098 23.8408C12.6178 23.9578 12.5037 24.0556 12.374 24.1285C12.2443 24.2014 12.1014 24.2481 11.9537 24.2658C11.8059 24.2835 11.6561 24.2719 11.5128 24.2318C11.3695 24.1916 11.2355 24.1236 11.1185 24.0316C11.0015 23.9397 10.9037 23.8255 10.8308 23.6958C10.7579 23.5661 10.7112 23.4232 10.6935 23.2755C10.6758 23.1277 10.6873 22.9779 10.7275 22.8346L15.7473 4.9445C15.7875 4.80106 15.8555 4.66695 15.9476 4.54984C16.0396 4.43272 16.1538 4.33489 16.2837 4.26196C16.4136 4.18903 16.5565 4.14241 16.7044 4.12478C16.8523 4.10716 17.0023 4.11886 17.1456 4.15923ZM8.89749 8.58643C9.10992 8.79892 9.22926 9.08709 9.22926 9.38756C9.22926 9.68803 9.10992 9.9762 8.89749 10.1887L4.89182 14.1955L8.89749 18.2012C9.00277 18.3064 9.0863 18.4313 9.1433 18.5688C9.20031 18.7063 9.22967 18.8536 9.22973 19.0025C9.22978 19.1513 9.20052 19.2987 9.14361 19.4362C9.0867 19.5737 9.00326 19.6987 8.89805 19.804C8.79285 19.9093 8.66793 19.9928 8.53045 20.0498C8.39296 20.1068 8.24559 20.1362 8.09675 20.1362C7.94792 20.1363 7.80053 20.107 7.663 20.0501C7.52547 19.9932 7.4005 19.9098 7.29522 19.8046L2.48729 14.9966C2.27486 14.7841 2.15552 14.496 2.15552 14.1955C2.15552 13.895 2.27486 13.6069 2.48729 13.3944L7.29522 8.58643C7.50772 8.374 7.79588 8.25466 8.09635 8.25466C8.39682 8.25466 8.68499 8.374 8.89749 8.58643ZM19.7598 10.1887C19.6516 10.0842 19.5653 9.95913 19.5059 9.82088C19.4465 9.68263 19.4152 9.53394 19.4139 9.38348C19.4126 9.23302 19.4413 9.08381 19.4983 8.94455C19.5552 8.80529 19.6394 8.67878 19.7458 8.57238C19.8522 8.46599 19.9787 8.38185 20.1179 8.32487C20.2572 8.2679 20.4064 8.23923 20.5569 8.24053C20.7073 8.24184 20.856 8.2731 20.9943 8.33249C21.1325 8.39187 21.2575 8.4782 21.3621 8.58643L26.17 13.3944C26.3824 13.6069 26.5018 13.895 26.5018 14.1955C26.5018 14.496 26.3824 14.7841 26.17 14.9966L21.3621 19.8046C21.1495 20.017 20.8611 20.1363 20.5605 20.1362C20.26 20.1361 19.9717 20.0166 19.7592 19.804C19.5468 19.5914 19.4275 19.303 19.4276 19.0025C19.4277 18.7019 19.5472 18.4136 19.7598 18.2012L23.7655 14.1955L19.7598 10.1887Z" fill="#00284B"/>
</svg>
