<svg width="28" height="17" viewBox="0 0 28 17" fill="none" xmlns="http://www.w3.org/2000/svg">
<path d="M12.2975 0.342787L10.1261 2.51418C9.476 2.69265 8.8726 3.01984 8.36269 3.47027L7.23237 4.47735C6.79895 4.86403 6.23379 5.0765 5.65164 5.0765H4.81028V10.5156C5.67713 10.5411 6.5015 10.8938 7.11764 11.5099L8.63039 13.0227L8.92784 13.3201L10.0751 14.4674C10.3386 14.7309 10.772 14.7309 11.0355 14.4674C11.1077 14.3952 11.163 14.3102 11.1927 14.221C11.3117 13.8938 11.5879 13.6473 11.9278 13.5708C12.2678 13.4943 12.6247 13.5963 12.8712 13.847L13.3301 14.2975C13.823 14.7904 14.6219 14.7904 15.1106 14.2975C15.34 14.068 15.4633 13.7748 15.476 13.4731C15.493 13.0992 15.714 12.7677 16.0539 12.6062C16.3938 12.4448 16.789 12.4788 17.0907 12.6955C17.4902 12.9802 18.0468 12.9419 18.4038 12.585C18.8032 12.1856 18.8032 11.5397 18.4038 11.1445L15.1828 7.92352L13.6616 9.32579C12.5015 10.3966 10.721 10.4136 9.53974 9.36403C8.19271 8.16573 8.16297 6.07508 9.47175 4.83854L12.4505 2.02551C13.6148 0.929189 15.1531 0.317291 16.755 0.317291C18.289 0.317291 19.772 0.882447 20.9151 1.89803L22.1941 3.03684H27.2465C27.6205 3.03684 27.9264 3.34279 27.9264 3.71673V12.5553C27.9264 13.3074 27.3188 13.915 26.5667 13.915H25.2069C24.7055 13.915 24.2635 13.6431 24.0298 13.2351H20.4222C20.2777 13.5198 20.0865 13.7918 19.8485 14.0298C19.1219 14.7564 18.1148 15.0411 17.1715 14.8839C17.0185 15.1941 16.8103 15.483 16.5511 15.7422C15.391 16.9023 13.5766 17.017 12.2848 16.0864C11.2182 16.9703 9.62897 16.915 8.63039 15.9122L7.48733 14.7649L7.18988 14.4674L5.67713 12.9547C5.44342 12.721 5.13747 12.585 4.81028 12.5595C4.81028 13.3074 4.19838 13.915 3.4505 13.915H2.09073C1.33861 13.915 0.730957 13.3074 0.730957 12.5553V3.71673C0.730957 3.34279 1.03691 3.03684 1.41084 3.03684H5.65164C5.73662 3.03684 5.81736 3.00709 5.87685 2.95185L7.00291 1.94902C8.18846 0.899444 9.71396 0.317291 11.2989 0.317291H11.7366C11.9236 0.317291 12.1148 0.32579 12.2975 0.342787ZM23.8471 11.1955V5.0765H21.8074C21.5567 5.0765 21.3145 4.98301 21.1318 4.81729L19.5638 3.42352C18.7904 2.73514 17.7919 2.35695 16.755 2.35695C15.6757 2.35695 14.6389 2.76913 13.8528 3.50851L10.874 6.32154C10.4363 6.73797 10.4448 7.43911 10.8953 7.83854C11.2904 8.19123 11.8896 8.18273 12.2763 7.82579L15.3315 5.00426C15.7437 4.62182 16.3896 4.64732 16.772 5.06375C17.1545 5.48018 17.129 6.12182 16.7125 6.50426L16.6785 6.53825L19.84 9.69973C20.265 10.1247 20.5412 10.6473 20.6644 11.1912H23.8429L23.8471 11.1955ZM3.4505 11.8754C3.4505 11.695 3.37887 11.5221 3.25137 11.3946C3.12387 11.2671 2.95093 11.1955 2.77062 11.1955C2.5903 11.1955 2.41737 11.2671 2.28986 11.3946C2.16236 11.5221 2.09073 11.695 2.09073 11.8754C2.09073 12.0557 2.16236 12.2286 2.28986 12.3561C2.41737 12.4836 2.5903 12.5553 2.77062 12.5553C2.95093 12.5553 3.12387 12.4836 3.25137 12.3561C3.37887 12.2286 3.4505 12.0557 3.4505 11.8754ZM25.8868 12.5553C26.0671 12.5553 26.24 12.4836 26.3675 12.3561C26.495 12.2286 26.5667 12.0557 26.5667 11.8754C26.5667 11.695 26.495 11.5221 26.3675 11.3946C26.24 11.2671 26.0671 11.1955 25.8868 11.1955C25.7064 11.1955 25.5335 11.2671 25.406 11.3946C25.2785 11.5221 25.2069 11.695 25.2069 11.8754C25.2069 12.0557 25.2785 12.2286 25.406 12.3561C25.5335 12.4836 25.7064 12.5553 25.8868 12.5553Z" fill="#00284B"/>
</svg>
