<svg width="19" height="18" viewBox="0 0 19 18" fill="none" xmlns="http://www.w3.org/2000/svg">
<path d="M16.0312 2.3625C15.8378 2.23738 15.6167 2.16169 15.3872 2.14207C15.1576 2.12246 14.9268 2.15952 14.715 2.25L7.77375 4.98375C7.60958 5.05119 7.43373 5.0856 7.25625 5.085H2.8125C2.43954 5.085 2.08185 5.23316 1.81813 5.49688C1.55441 5.76061 1.40625 6.11829 1.40625 6.49125V6.60375H0V9.97875H1.40625V10.125C1.41506 10.4921 1.5671 10.8412 1.82988 11.0976C2.09265 11.3541 2.44531 11.4976 2.8125 11.4975L4.5 15.075C4.61427 15.3159 4.79416 15.5197 5.01903 15.663C5.2439 15.8063 5.50462 15.8832 5.77125 15.885H6.48C6.85101 15.882 7.20581 15.7326 7.4671 15.4692C7.7284 15.2058 7.87501 14.8498 7.875 14.4788V11.6325L14.715 14.3663C14.8835 14.4324 15.0628 14.4668 15.2438 14.4675C15.5246 14.4623 15.798 14.3764 16.0312 14.22C16.2163 14.0951 16.3689 13.9279 16.4765 13.7322C16.5841 13.5366 16.6436 13.3182 16.65 13.095V3.52125C16.649 3.29233 16.5921 3.06713 16.4842 2.86519C16.3764 2.66326 16.2209 2.4907 16.0312 2.3625ZM6.46875 6.49125V10.125H2.8125V6.49125H6.46875ZM6.46875 14.4788H5.76L4.37625 11.4975H6.46875V14.4788ZM8.29125 10.2938C8.15765 10.2255 8.01838 10.1691 7.875 10.125V6.4125C8.01697 6.38299 8.15621 6.34159 8.29125 6.28875L15.2438 3.52125V13.0613L8.29125 10.2938ZM16.6838 6.885V9.6975C17.0567 9.6975 17.4144 9.54935 17.6781 9.28562C17.9418 9.0219 18.09 8.66421 18.09 8.29125C18.09 7.91829 17.9418 7.56061 17.6781 7.29688C17.4144 7.03316 17.0567 6.885 16.6838 6.885Z" fill="#00284B"/>
</svg>
