<svg width="19" height="19" viewBox="0 0 19 19" fill="none" xmlns="http://www.w3.org/2000/svg">
<path fill-rule="evenodd" clip-rule="evenodd" d="M15.3615 0.547257C15.7933 0.547257 16.1443 0.898221 16.1443 1.33001V2.76154H17.5758C17.7307 2.76151 17.882 2.8074 18.0108 2.89341C18.1395 2.97941 18.2399 3.10168 18.2992 3.24472C18.3584 3.38777 18.3739 3.54519 18.3437 3.69705C18.3135 3.84891 18.2389 3.98839 18.1294 4.09786L16.513 5.71429C16.277 5.94979 15.9573 6.08233 15.6239 6.08297H13.9964L10.0882 9.99119C9.93081 10.1379 9.72262 10.2177 9.5075 10.2139C9.29238 10.2101 9.08713 10.123 8.93499 9.97084C8.78286 9.8187 8.69571 9.61345 8.69192 9.39834C8.68812 9.18322 8.76797 8.97502 8.91465 8.81761L12.8229 4.9094V3.2819C12.8229 2.94865 12.9557 2.62869 13.1915 2.39176L14.808 0.775329C14.8804 0.702303 14.9667 0.644429 15.0617 0.605082C15.1568 0.565735 15.2587 0.545701 15.3615 0.54615M3.41215 9.4044C3.41203 8.50157 3.61267 7.61 3.99955 6.79426C4.38643 5.97852 4.94986 5.25901 5.64905 4.68783C6.34824 4.11666 7.16569 3.7081 8.04222 3.49175C8.91875 3.2754 9.83242 3.25666 10.7171 3.4369C10.9318 3.47787 11.154 3.43253 11.3355 3.31072C11.5169 3.18891 11.6431 3.00045 11.6865 2.78623C11.7299 2.57202 11.6871 2.34931 11.5674 2.16644C11.4477 1.98357 11.2607 1.85528 11.047 1.8094C9.41471 1.47754 7.71892 1.68041 6.21097 2.38794C4.70302 3.09548 3.46315 4.27003 2.67511 5.73752C1.88708 7.20501 1.59282 8.88734 1.83593 10.5352C2.07905 12.183 2.84662 13.7087 4.02487 14.8861C5.20312 16.0635 6.72936 16.8299 8.37739 17.0719C10.0254 17.3138 11.7075 17.0183 13.1744 16.2292C14.6414 15.4401 15.815 14.1993 16.5214 12.6909C17.2279 11.1824 17.4295 9.48645 17.0964 7.8544C17.0525 7.63858 16.9247 7.44904 16.7411 7.32747C16.5574 7.2059 16.333 7.16227 16.1172 7.20617C15.9013 7.25007 15.7118 7.3779 15.5902 7.56155C15.4687 7.7452 15.425 7.96962 15.4689 8.18544C15.5494 8.57884 15.59 8.98516 15.5907 9.4044C15.5907 11.0194 14.9492 12.5682 13.8072 13.7102C12.6652 14.8521 11.1164 15.4937 9.50143 15.4937C7.88645 15.4937 6.33762 14.8521 5.19566 13.7102C4.0537 12.5682 3.41215 11.0194 3.41215 9.4044ZM9.35086 6.64097C9.57079 6.62923 9.77705 6.53059 9.92426 6.36678C10.0715 6.20296 10.1476 5.98737 10.1358 5.76744C10.1241 5.54751 10.0254 5.34125 9.86163 5.19404C9.69781 5.04683 9.48222 4.97073 9.26229 4.98247C8.41192 5.0283 7.5928 5.31834 6.90307 5.81784C6.21334 6.31734 5.68225 7.00511 5.37345 7.79875C5.06464 8.59239 4.99121 9.45824 5.16196 10.2925C5.3327 11.1269 5.74038 11.8942 6.33614 12.5028C6.93191 13.1113 7.69049 13.5351 8.52099 13.7235C9.3515 13.9119 10.2187 13.8568 11.0187 13.5649C11.8187 13.2729 12.5176 12.7565 13.0316 12.0775C13.5456 11.3985 13.8529 10.5858 13.9167 9.73654C13.933 9.51691 13.8614 9.29979 13.7176 9.13296C13.5738 8.96613 13.3697 8.86325 13.15 8.84695C12.9304 8.83066 12.7133 8.90228 12.5464 9.04606C12.3796 9.18985 12.2767 9.39401 12.2604 9.61365C12.22 10.1441 12.0276 10.6517 11.7062 11.0757C11.3848 11.4996 10.9481 11.822 10.4482 12.0041C9.94834 12.1863 9.40658 12.2205 8.88777 12.1027C8.36896 11.9849 7.89509 11.7201 7.52288 11.34C7.15068 10.9599 6.89591 10.4805 6.78908 9.95934C6.68225 9.43817 6.72789 8.89725 6.92052 8.40133C7.11316 7.90542 7.44463 7.47554 7.87527 7.16314C8.3059 6.85074 8.81744 6.66906 9.34865 6.63986" fill="#00284B"/>
</svg>
